<?xml version="1.0" encoding="utf-8"?>
<!-- Generator: Adobe Illustrator 18.1.1, SVG Export Plug-In . SVG Version: 6.00 Build 0)  -->
<!DOCTYPE svg PUBLIC "-//W3C//DTD SVG 1.1//EN" "http://www.w3.org/Graphics/SVG/1.1/DTD/svg11.dtd">
<svg version="1.1" id="Layer_1" xmlns="http://www.w3.org/2000/svg" x="0px" y="0px"
     viewBox="0 0 220 30" enable-background="new 0 0 220 30" xml:space="preserve">
<g>
	<path fill="#FFFFFF" d="M36.6,27.5V4.4h3.2v23.1H36.6z"/>
	<path fill="#FFFFFF" d="M59.8,14.8v12.6h-3.1V15.2c0-2.6-1.1-3.4-2.8-3.4c-2,0-3.3,1.2-4.5,3.1v12.5h-3.1V9.8H49l0.3,2.6
		c1.2-1.8,3.1-3,5.4-3C57.9,9.4,59.8,11.5,59.8,14.8z"/>
	<path fill="#FFFFFF" d="M79,6.7l-1.8,2c-1.7-1.5-3.3-2.1-5.2-2.1c-2.3,0-4.1,1.1-4.1,3.3c0,1.9,0.9,2.9,5.1,4.1
		c3.7,1.1,6.8,2.6,6.8,7c0,4-3,6.8-8.2,6.8c-3.3,0-5.9-1.1-7.8-3l1.8-2c1.6,1.5,3.4,2.4,6,2.4c2.7,0,5-1.3,5-4.1
		c0-2.2-1.1-3.2-5-4.5c-4.5-1.4-6.8-3.1-6.8-6.7c0-3.5,3-6,7.3-6C75,4,77,4.9,79,6.7z"/>
	<path fill="#FFFFFF" d="M87.9,3.5c0,1.2-0.9,2.1-2.2,2.1c-1.3,0-2.1-0.9-2.1-2.1c0-1.2,0.9-2.1,2.1-2.1C87,1.4,87.9,2.3,87.9,3.5z
		 M84.2,27.5V9.8h3.1v17.6H84.2z"/>
	<path fill="#FFFFFF" d="M102.6,26.7c-1.2,0.8-2.4,1.2-3.9,1.2c-3,0-4.8-1.7-4.8-5V12.2h-3.1V9.8h3.1v-4l3.1-0.4v4.4h4.2l-0.3,2.4
		h-3.8v10.5c0,1.8,0.6,2.6,2.1,2.6c0.8,0,1.5-0.2,2.3-0.8L102.6,26.7z"/>
	<path fill="#FFFFFF" d="M118.7,19.7h-11.2c0.3,4.1,2.2,5.7,4.8,5.7c1.7,0,3-0.5,4.6-1.5l1.3,1.8c-1.7,1.4-3.7,2.2-6.2,2.2
		c-4.9,0-7.8-3.4-7.8-9c0-5.5,2.8-9.4,7.3-9.4c4.8,0,7.3,3.3,7.3,8.7C118.8,18.7,118.7,19.3,118.7,19.7z M115.7,17.2
		c0-3.4-1.4-5.4-4.1-5.4c-2.3,0-3.9,1.6-4.1,5.6h8.3V17.2z"/>
	<g>
		<path fill="#FFFFFF" stroke="#FFFFFF" stroke-width="0.5" stroke-miterlimit="10" d="M130.2,11.5l-0.8,2.3h-0.8l2.9-8.6h0.9
			l2.9,8.6h-0.8l-0.8-2.3H130.2z M132,5.9l-1.6,5h3.2L132,5.9z"/>
		<path fill="#FFFFFF" stroke="#FFFFFF" stroke-width="0.5" stroke-miterlimit="10" d="M141.6,9.2v4.7h-0.7V9.3
			c0-1.1-0.4-1.5-1.2-1.5c-0.9,0-1.5,0.6-2,1.4v4.8h-0.7V7.3h0.6l0.1,1.1c0.5-0.8,1.2-1.3,2.2-1.3C141,7.2,141.6,7.9,141.6,9.2z"/>
		<path fill="#FFFFFF" stroke="#FFFFFF" stroke-width="0.5" stroke-miterlimit="10" d="M148.5,5.9v3.2h3v0.6h-3v3.5h3.7v0.6h-4.5
			V5.3h4.4L152,5.9H148.5z"/>
		<path fill="#FFFFFF" stroke="#FFFFFF" stroke-width="0.5" stroke-miterlimit="10" d="M154.9,9.7v4.2h-0.8V5.3h0.8V9h4.1V5.3h0.8
			v8.6h-0.8V9.7H154.9z"/>
		<path fill="#FFFFFF" stroke="#FFFFFF" stroke-width="0.5" stroke-miterlimit="10" d="M163.4,10v3.9h-0.8V5.3h2.1
			c2.1,0,3.1,0.8,3.1,2.3c0,1.3-0.7,2-1.9,2.3l2.4,4h-0.9l-2.2-3.9H163.4z M164.8,9.4c1.4,0,2.2-0.5,2.2-1.8c0-1.1-0.6-1.7-2.3-1.7
			h-1.3v3.5H164.8z"/>
		<path fill="#FFFFFF" stroke="#FFFFFF" stroke-width="0.5" stroke-miterlimit="10" d="M173.5,11.7v2.2h-0.7v-2.2h-3.7v-0.5l2.5-5.7
			l0.6,0.3l-2.4,5.4h2.9l0.1-2.4h0.6v2.4h1.1v0.6H173.5z"/>
		<path fill="#FFFFFF" stroke="#FFFFFF" stroke-width="0.5" stroke-miterlimit="10" d="M181.6,5.9l-0.4,0.5
			c-0.6-0.5-1.1-0.7-1.8-0.7c-1.5,0-2.7,1.1-2.7,3.8c0,2.6,1.2,3.8,2.7,3.8c0.9,0,1.4-0.3,1.9-0.7l0.4,0.5c-0.5,0.5-1.3,0.9-2.3,0.9
			c-2,0-3.5-1.5-3.5-4.4c0-2.9,1.6-4.4,3.5-4.4C180.4,5.1,181,5.4,181.6,5.9z"/>
		<path fill="#FFFFFF" stroke="#FFFFFF" stroke-width="0.5" stroke-miterlimit="10" d="M184.2,10v3.9h-0.8V5.3h2.1
			c2.1,0,3.1,0.8,3.1,2.3c0,1.3-0.7,2-1.9,2.3l2.4,4h-0.9l-2.2-3.9H184.2z M185.6,9.4c1.4,0,2.2-0.5,2.2-1.8c0-1.1-0.6-1.7-2.3-1.7
			h-1.3v3.5H185.6z"/>
		<path fill="#FFFFFF" stroke="#FFFFFF" stroke-width="0.5" stroke-miterlimit="10" d="M134.3,20.7l-0.5,0.5c-0.6-0.6-1.2-0.8-2-0.8
			c-1.1,0-1.8,0.6-1.8,1.5c0,0.9,0.5,1.3,2,1.7c1.5,0.5,2.5,1,2.5,2.5c0,1.5-1.1,2.5-2.8,2.5c-1.2,0-2-0.4-2.7-1.1l0.5-0.5
			c0.6,0.6,1.3,0.9,2.3,0.9c1.2,0,2.1-0.7,2.1-1.8c0-1-0.5-1.5-2-1.9c-1.7-0.5-2.4-1.1-2.4-2.4c0-1.2,1-2.1,2.5-2.1
			C132.9,19.8,133.6,20.1,134.3,20.7z"/>
		<path fill="#FFFFFF" stroke="#FFFFFF" stroke-width="0.5" stroke-miterlimit="10" d="M141.2,25.5h-4.4c0.1,1.8,0.9,2.5,2,2.5
			c0.7,0,1.2-0.2,1.8-0.7l0.3,0.5c-0.6,0.5-1.3,0.8-2.1,0.8c-1.7,0-2.8-1.3-2.8-3.4c0-2.1,1-3.5,2.6-3.5c1.7,0,2.6,1.2,2.6,3.2
			C141.2,25.2,141.2,25.4,141.2,25.5z M140.5,24.8c0-1.4-0.6-2.3-1.8-2.3c-1,0-1.8,0.8-1.9,2.5h3.7V24.8z"/>
		<path fill="#FFFFFF" stroke="#FFFFFF" stroke-width="0.5" stroke-miterlimit="10" d="M146.5,21.9l-0.1,0.7
			c-0.2-0.1-0.4-0.1-0.6-0.1c-0.9,0-1.4,0.7-1.8,2v4h-0.7v-6.6h0.6l0.1,1.5c0.4-1.1,0.9-1.6,1.9-1.6
			C146.1,21.8,146.3,21.8,146.5,21.9z"/>
		<path fill="#FFFFFF" stroke="#FFFFFF" stroke-width="0.5" stroke-miterlimit="10" d="M149.3,28.5l-2.3-6.6h0.8l2,5.9l1.9-5.9h0.8
			l-2.3,6.6H149.3z"/>
		<path fill="#FFFFFF" stroke="#FFFFFF" stroke-width="0.5" stroke-miterlimit="10" d="M154.9,19.6c0,0.3-0.2,0.5-0.6,0.5
			c-0.3,0-0.5-0.2-0.5-0.5s0.2-0.5,0.5-0.5C154.7,19.1,154.9,19.3,154.9,19.6z M154,28.5v-6.6h0.7v6.6H154z"/>
		<path fill="#FFFFFF" stroke="#FFFFFF" stroke-width="0.5" stroke-miterlimit="10" d="M161.5,22.5l-0.4,0.5
			c-0.4-0.4-0.9-0.5-1.5-0.5c-1.2,0-2,0.9-2,2.8c0,1.9,0.8,2.7,2,2.7c0.6,0,1.1-0.2,1.5-0.6l0.4,0.5c-0.5,0.4-1.1,0.7-1.9,0.7
			c-1.7,0-2.8-1.2-2.8-3.4c0-2.1,1.1-3.5,2.8-3.5C160.4,21.8,160.9,22,161.5,22.5z"/>
		<path fill="#FFFFFF" stroke="#FFFFFF" stroke-width="0.5" stroke-miterlimit="10" d="M167.8,25.5h-4.4c0.1,1.8,0.9,2.5,2,2.5
			c0.7,0,1.2-0.2,1.8-0.7l0.3,0.5c-0.6,0.5-1.3,0.8-2.1,0.8c-1.7,0-2.8-1.3-2.8-3.4c0-2.1,1-3.5,2.6-3.5c1.7,0,2.6,1.2,2.6,3.2
			C167.8,25.2,167.8,25.4,167.8,25.5z M167.1,24.8c0-1.4-0.6-2.3-1.8-2.3c-1,0-1.8,0.8-1.9,2.5h3.7V24.8z"/>
		<path fill="#FFFFFF" stroke="#FFFFFF" stroke-width="0.5" stroke-miterlimit="10" d="M175.5,19.9c2,0,3.2,0.8,3.2,2.6
			c0,1.9-1.3,2.7-3.2,2.7h-1.2v3.3h-0.8v-8.6H175.5z M175.5,24.5c1.4,0,2.4-0.5,2.4-2c0-1.5-0.9-2-2.4-2h-1.3v4H175.5z"/>
		<path fill="#FFFFFF" stroke="#FFFFFF" stroke-width="0.5" stroke-miterlimit="10" d="M181.2,27.4c0,0.4,0.2,0.6,0.5,0.6
			c0.2,0,0.3,0,0.4-0.1l0.2,0.5c-0.2,0.1-0.5,0.2-0.8,0.2c-0.7,0-1.1-0.4-1.1-1.3v-8.1l0.7-0.1V27.4z"/>
		<path fill="#FFFFFF" stroke="#FFFFFF" stroke-width="0.5" stroke-miterlimit="10" d="M188.2,27.1c0,0.7,0.2,0.9,0.6,1.1l-0.2,0.5
			c-0.6-0.1-0.9-0.4-1-1.1c-0.5,0.8-1.2,1.1-2,1.1c-1.3,0-2-0.8-2-2c0-1.4,1-2.1,2.7-2.1h1.3v-0.6c0-1-0.4-1.5-1.5-1.5
			c-0.5,0-1.1,0.1-1.8,0.4l-0.2-0.6c0.7-0.3,1.4-0.4,2.1-0.4c1.5,0,2.1,0.7,2.1,2.1V27.1z M187.5,26.9v-1.8h-1.1
			c-1.3,0-2.1,0.5-2.1,1.6c0,0.9,0.5,1.4,1.4,1.4C186.5,28.1,187.1,27.6,187.5,26.9z"/>
		<path fill="#FFFFFF" stroke="#FFFFFF" stroke-width="0.5" stroke-miterlimit="10" d="M193.9,28.2c-0.4,0.3-0.9,0.4-1.4,0.4
			c-1,0-1.6-0.6-1.6-1.7v-4.4h-1.1v-0.6h1.1v-1.6l0.7-0.1v1.7h1.7l-0.1,0.6h-1.6v4.3c0,0.8,0.3,1.1,1,1.1c0.4,0,0.7-0.1,1-0.3
			L193.9,28.2z"/>
		<path fill="#FFFFFF" stroke="#FFFFFF" stroke-width="0.5" stroke-miterlimit="10" d="M195.9,20.9v1.1h1.7l-0.1,0.6h-1.6v6h-0.7v-6
			h-1.1v-0.6h1.1v-1.1c0-1,0.7-1.7,1.8-1.7c0.6,0,1,0.1,1.5,0.4l-0.3,0.5c-0.4-0.2-0.8-0.3-1.2-0.3
			C196.3,19.8,195.9,20.1,195.9,20.9z"/>
		<path fill="#FFFFFF" stroke="#FFFFFF" stroke-width="0.5" stroke-miterlimit="10" d="M204.1,25.2c0,2.1-1.1,3.4-2.8,3.4
			c-1.7,0-2.8-1.3-2.8-3.4c0-2.1,1.1-3.4,2.8-3.4C203.1,21.8,204.1,23.1,204.1,25.2z M199.3,25.2c0,1.8,0.7,2.8,2,2.8
			c1.3,0,2-0.9,2-2.8c0-1.8-0.7-2.8-2-2.8C200.1,22.4,199.3,23.3,199.3,25.2z"/>
		<path fill="#FFFFFF" stroke="#FFFFFF" stroke-width="0.5" stroke-miterlimit="10" d="M209.4,21.9l-0.1,0.7
			c-0.2-0.1-0.4-0.1-0.6-0.1c-0.9,0-1.4,0.7-1.8,2v4h-0.7v-6.6h0.6l0.1,1.5c0.4-1.1,0.9-1.6,1.9-1.6C209,21.8,209.2,21.8,209.4,21.9
			z"/>
		<path fill="#FFFFFF" stroke="#FFFFFF" stroke-width="0.5" stroke-miterlimit="10" d="M219,23.8v4.7h-0.7v-4.6
			c0-1.1-0.4-1.5-1.1-1.5c-0.8,0-1.3,0.6-1.8,1.4v4.8h-0.7v-4.6c0-1.1-0.4-1.5-1.1-1.5c-0.8,0-1.4,0.6-1.8,1.4v4.8h-0.7v-6.6h0.6
			l0.1,1.1c0.5-0.8,1.2-1.3,2-1.3c0.8,0,1.4,0.5,1.6,1.3c0.5-0.8,1.2-1.3,2.1-1.3C218.3,21.8,219,22.6,219,23.8z"/>
	</g>
	<g>
		<g>
			<path fill="#FFFFFF" d="M11.1,13.5H4.4L1,8l3.3-5.5h6.7L14.4,8L11.1,13.5z"/>
			<polygon fill="#FFFFFF" points="4.4,2.5 1,8 4.4,13.5 11.1,13.5 14.4,8 11.1,2.5 			"/>
		</g>
		<g>
			<path fill="#FFFFFF" d="M4.3,28.3H11l3.3-5.5L11,17.2H4.3L1,22.8L4.3,28.3z"/>
		</g>
		<g>
			<path fill="#FFFFFF" d="M18,20.7h6.7l3.3-5.5l-3.3-5.5H18l-3.3,5.5L18,20.7z"/>
		</g>
	</g>
</g>
</svg>
