<svg width="1052" height="219" xmlns="http://www.w3.org/2000/svg">
 <style type="text/css">.st0{fill:#00bb9e;}
	.st1{fill:#00bb9e;}</style>

 <g>
  <title>background</title>
  <rect fill="none" id="canvas_background" height="221" width="1054" y="-1" x="-1"/>
 </g>
 <g>
  <title>Layer 1</title>
  <polygon id="svg_1" points="54.849998474121094,10.350625038146973 19.6200008392334,10.350625038146973 2,40.87062454223633 19.6200008392334,71.38062286376953 54.849998474121094,71.38062286376953 72.47000122070312,40.87062454223633 " class="st0"/>
  <polygon id="svg_2" points="54.849998474121094,89.38062286376953 19.6200008392334,89.38062286376953 2,119.90062713623047 19.6200008392334,150.41062927246094 54.849998474121094,150.41062927246094 72.47000122070312,119.90062713623047 " class="st0"/>
  <polygon id="svg_3" points="125.31999969482422,48.8806266784668 90.08999633789062,48.8806266784668 72.47000122070312,79.40062713623047 90.08999633789062,109.9106216430664 125.31999969482422,109.9106216430664 142.94000244140625,79.40062713623047 " class="st0"/>
  <path id="svg_4" d="m305.47,76.890625l0,65.58l-14.61,0l0,-63.49c0,-14.09 -5.74,-18.62 -15.13,-18.62c-10.79,0 -18.09,6.78 -24.35,16.88l0,65.23l-14.61,0l0,-91.5l12.53,0l1.22,13.75c6.78,-9.4 16.35,-15.84 28.7,-15.84c16.68,0 26.25,10.62 26.25,28.01z" class="st1"/>
  <path id="svg_5" d="m185.73,142.470625l0,-121.01l15.3,0l0,121.01l-15.3,0z" class="st1"/>
  <path id="svg_6" d="m405.83,35.160625l-8.5,9.53c-8.67,-7.63 -16.99,-10.75 -27.04,-10.75c-12.66,0 -22.19,6.06 -22.19,17.68c0,10.57 5.02,15.6 26.52,22.19c19.58,5.89 35.01,13.52 35.01,35.88c0,20.8 -15.6,35.19 -41.77,35.19c-16.99,0 -30.16,-5.72 -40.04,-15.26l8.84,-9.7c8.15,7.8 17.85,12.48 31.03,12.48c14.56,0 26.35,-7.45 26.35,-22.19c0,-12.31 -5.89,-17.68 -26.35,-23.92c-23.4,-7.11 -35.01,-15.95 -35.01,-34.15c0,-17.85 15.25,-30.68 36.92,-30.68c16.29,0 26.52,4.86 36.23,13.7z" class="st1"/>
  <path id="svg_7" d="m452.99,16.290625c0,5.78 -4.21,10.16 -10.51,10.16c-6.12,0 -10.33,-4.38 -10.33,-10.16c0,-5.77 4.21,-10.15 10.33,-10.15c6.31,0 10.51,4.38 10.51,10.15zm-17.68,125.37l0,-92.1l14.71,0l0,92.1l-14.71,0z" class="st1"/>
  <path id="svg_8" d="m509.87,144.880625c-15.45,0 -24.69,-9.06 -24.69,-26.1l0,-57.89l-16.16,0l0,-11.54l16.16,0l0,-21.49l14.92,-1.6l0,23.08l22.55,0l-1.6,11.55l-20.95,0l0,57.18c0,9.77 3.37,14.38 11.72,14.38c4.44,0 8.34,-1.24 12.96,-4.08l5.68,10.3c-6.03,4.08 -12.78,6.21 -20.59,6.21z" class="st1"/>
  <path id="svg_9" d="m613.65,101.740625l-59.45,0c1.58,22.28 11.75,31.04 25.78,31.04c9.3,0 16.14,-2.63 24.2,-8.24l6.48,8.77c-8.94,7.19 -19.11,11.57 -31.74,11.57c-25.43,0 -40.34,-18.06 -40.34,-47.35c0,-28.94 14.38,-49.11 37.88,-49.11c24.72,0 37.53,17.36 37.53,45.24c0.01,3.17 -0.16,6.15 -0.34,8.08zm-14.21,-12.27c0,-18.59 -7.36,-29.29 -22.62,-29.29c-12.8,0 -21.4,9.12 -22.63,30.69l45.24,0l0,-1.4l0.01,0z" class="st1"/>
  <g id="svg_10">
   <path id="svg_11" d="m219.14,208.480625l-3.72,0c-0.43,0 -0.78,-0.11 -1.04,-0.32c-0.26,-0.21 -0.46,-0.49 -0.59,-0.82l-3.32,-8.57l-15.94,0l-3.32,8.57c-0.1,0.3 -0.29,0.56 -0.57,0.79c-0.28,0.23 -0.63,0.35 -1.04,0.35l-3.72,0l14.2,-35.51l4.86,0l14.2,35.51zm-10.01,-13.19l-5.58,-14.45c-0.17,-0.43 -0.34,-0.93 -0.52,-1.5c-0.18,-0.57 -0.36,-1.18 -0.52,-1.82c-0.35,1.34 -0.7,2.45 -1.07,3.35l-5.58,14.42l13.27,0z" class="st1"/>
   <path id="svg_12" d="m257.38,177.000625l-11.5,0l0,31.47l-4.78,0l0,-31.47l-11.52,0l0,-4.04l27.81,0l0,4.04l-0.01,0z" class="st1"/>
   <path id="svg_13" d="m260.33,188.400625c0.79,-1.72 1.77,-3.06 2.92,-4.03c1.16,-0.97 2.57,-1.45 4.24,-1.45c0.53,0 1.04,0.06 1.52,0.17c0.49,0.12 0.92,0.3 1.3,0.55l-0.32,3.3c-0.1,0.41 -0.35,0.62 -0.74,0.62c-0.23,0 -0.57,-0.05 -1.02,-0.15c-0.45,-0.1 -0.95,-0.15 -1.51,-0.15c-0.79,0 -1.5,0.12 -2.12,0.35c-0.62,0.23 -1.17,0.57 -1.66,1.03c-0.49,0.45 -0.93,1.02 -1.31,1.69c-0.39,0.67 -0.74,1.43 -1.05,2.29l0,15.86l-4.44,0l0,-25.1l2.53,0c0.48,0 0.81,0.09 0.99,0.27c0.18,0.18 0.31,0.5 0.37,0.94l0.3,3.81z" class="st1"/>
   <path id="svg_14" d="m279.78,175.490625c0,0.43 -0.09,0.83 -0.26,1.2c-0.17,0.37 -0.4,0.7 -0.69,0.99c-0.29,0.29 -0.63,0.52 -1.02,0.68c-0.39,0.16 -0.8,0.25 -1.23,0.25c-0.43,0 -0.83,-0.08 -1.2,-0.25c-0.37,-0.16 -0.7,-0.39 -0.98,-0.68c-0.28,-0.29 -0.5,-0.62 -0.67,-0.99c-0.17,-0.37 -0.25,-0.77 -0.25,-1.2c0,-0.43 0.08,-0.84 0.25,-1.23c0.16,-0.39 0.39,-0.73 0.67,-1.02c0.28,-0.29 0.61,-0.52 0.98,-0.68c0.37,-0.16 0.77,-0.25 1.2,-0.25c0.43,0 0.84,0.08 1.23,0.25c0.39,0.16 0.73,0.39 1.02,0.68c0.29,0.29 0.52,0.63 0.69,1.02c0.18,0.39 0.26,0.8 0.26,1.23zm-0.94,7.88l0,25.1l-4.41,0l0,-25.1l4.41,0z" class="st1"/>
   <path id="svg_15" d="m315.52,172.960625l0,35.51l-2.4,0c-0.38,0 -0.7,-0.07 -0.95,-0.2c-0.26,-0.13 -0.51,-0.36 -0.76,-0.67l-20.55,-26.77c0.03,0.41 0.06,0.82 0.07,1.21c0.02,0.4 0.02,0.77 0.02,1.12l0,25.3l-4.21,0l0,-35.51l2.48,0c0.21,0 0.4,0.01 0.54,0.04c0.15,0.02 0.28,0.07 0.4,0.12s0.23,0.14 0.35,0.25c0.11,0.11 0.24,0.24 0.37,0.41l20.55,26.74c-0.03,-0.43 -0.06,-0.85 -0.09,-1.25c-0.02,-0.4 -0.04,-0.79 -0.04,-1.15l0,-25.16l4.22,0l0,0.01z" class="st1"/>
   <path id="svg_16" d="m343.15,204.960625c-0.54,0.66 -1.2,1.24 -1.96,1.72c-0.76,0.49 -1.57,0.89 -2.44,1.2c-0.87,0.31 -1.76,0.55 -2.69,0.71c-0.93,0.16 -1.84,0.24 -2.75,0.24c-1.74,0 -3.34,-0.29 -4.8,-0.88c-1.46,-0.59 -2.73,-1.45 -3.79,-2.58c-1.06,-1.13 -1.9,-2.53 -2.49,-4.2c-0.59,-1.67 -0.89,-3.59 -0.89,-5.75c0,-1.75 0.27,-3.39 0.8,-4.91c0.54,-1.52 1.31,-2.84 2.32,-3.95c1.01,-1.12 2.24,-1.99 3.69,-2.63c1.45,-0.64 3.09,-0.95 4.91,-0.95c1.5,0 2.89,0.25 4.18,0.76c1.28,0.5 2.39,1.23 3.32,2.18c0.94,0.95 1.67,2.12 2.19,3.52c0.53,1.4 0.8,2.99 0.8,4.77c0,0.69 -0.07,1.16 -0.22,1.39c-0.15,0.23 -0.43,0.35 -0.84,0.35l-16.78,0c0.05,1.59 0.27,2.97 0.66,4.14c0.39,1.17 0.93,2.15 1.63,2.94c0.69,0.78 1.52,1.37 2.48,1.76c0.96,0.39 2.03,0.58 3.22,0.58c1.11,0 2.06,-0.13 2.86,-0.38c0.8,-0.26 1.49,-0.53 2.07,-0.83c0.58,-0.3 1.06,-0.57 1.45,-0.83c0.39,-0.26 0.72,-0.38 1,-0.38c0.36,0 0.64,0.14 0.84,0.42l1.23,1.59zm-3.56,-11.77c0,-1.02 -0.15,-1.96 -0.44,-2.81c-0.29,-0.85 -0.71,-1.59 -1.26,-2.21s-1.22,-1.1 -2.02,-1.44c-0.79,-0.34 -1.69,-0.51 -2.7,-0.51c-2.11,0 -3.79,0.62 -5.02,1.85c-1.23,1.23 -2,2.94 -2.29,5.12l13.73,0z" class="st1"/>
   <path id="svg_17" d="m356.49,208.870625c-1.98,0 -3.51,-0.55 -4.57,-1.66c-1.06,-1.11 -1.6,-2.7 -1.6,-4.78l0,-15.36l-3.02,0c-0.27,0 -0.49,-0.08 -0.67,-0.24s-0.27,-0.4 -0.27,-0.73l0,-1.76l4.11,-0.52l1.01,-7.76c0.05,-0.25 0.16,-0.45 0.33,-0.61c0.17,-0.16 0.4,-0.24 0.68,-0.24l2.23,0l0,8.65l7.26,0l0,3.2l-7.26,0l0,15.07c0,1.06 0.26,1.84 0.77,2.35c0.51,0.51 1.17,0.77 1.98,0.77c0.46,0 0.86,-0.06 1.2,-0.19c0.34,-0.12 0.63,-0.26 0.88,-0.41c0.25,-0.15 0.46,-0.28 0.63,-0.41c0.17,-0.12 0.33,-0.19 0.46,-0.19c0.23,0 0.44,0.14 0.62,0.42l1.29,2.11c-0.76,0.71 -1.68,1.27 -2.75,1.67c-1.07,0.42 -2.17,0.62 -3.31,0.62z" class="st1"/>
   <path id="svg_18" d="m394.67,208.480625l-4.76,0c-0.36,0 -0.65,-0.1 -0.86,-0.28c-0.21,-0.19 -0.38,-0.4 -0.51,-0.63l-9.52,-14.92c-0.13,0.4 -0.28,0.74 -0.45,1.02l-9.27,13.9c-0.16,0.23 -0.34,0.44 -0.53,0.63c-0.19,0.19 -0.45,0.28 -0.78,0.28l-4.46,0l12.22,-18.24l-11.72,-17.27l4.78,0c0.35,0 0.6,0.06 0.77,0.17c0.16,0.12 0.31,0.28 0.45,0.5l9.27,14.23c0.11,-0.35 0.29,-0.73 0.52,-1.14l8.75,-12.99c0.13,-0.23 0.29,-0.42 0.47,-0.56c0.18,-0.14 0.4,-0.21 0.64,-0.21l4.59,0l-11.77,17.05l12.17,18.46z" class="st1"/>
   <path id="svg_19" d="m437.37,201.140625c0.26,0 0.5,0.11 0.69,0.32l1.91,2.06c-1.46,1.69 -3.22,3 -5.29,3.94c-2.07,0.94 -4.58,1.41 -7.52,1.41c-2.54,0 -4.86,-0.44 -6.94,-1.33c-2.08,-0.88 -3.86,-2.12 -5.33,-3.72c-1.47,-1.59 -2.61,-3.51 -3.42,-5.74c-0.81,-2.23 -1.21,-4.68 -1.21,-7.36c0,-2.68 0.42,-5.13 1.26,-7.36c0.84,-2.23 2.03,-4.15 3.56,-5.75c1.53,-1.6 3.36,-2.85 5.49,-3.73c2.13,-0.88 4.48,-1.33 7.06,-1.33c2.53,0 4.76,0.4 6.69,1.21c1.93,0.81 3.63,1.91 5.11,3.3l-1.59,2.21c-0.1,0.17 -0.23,0.3 -0.38,0.41c-0.16,0.11 -0.37,0.16 -0.63,0.16c-0.3,0 -0.66,-0.16 -1.09,-0.48c-0.43,-0.32 -0.99,-0.68 -1.68,-1.08c-0.69,-0.4 -1.56,-0.76 -2.6,-1.08s-2.32,-0.48 -3.84,-0.48c-1.83,0 -3.51,0.32 -5.03,0.95c-1.52,0.64 -2.83,1.56 -3.93,2.76c-1.1,1.21 -1.95,2.68 -2.57,4.41c-0.61,1.73 -0.92,3.69 -0.92,5.87c0,2.21 0.32,4.19 0.95,5.92c0.64,1.73 1.5,3.2 2.6,4.4c1.1,1.2 2.4,2.11 3.89,2.74c1.5,0.63 3.11,0.94 4.85,0.94c1.06,0 2.01,-0.06 2.86,-0.19c0.85,-0.12 1.64,-0.32 2.35,-0.58c0.72,-0.26 1.39,-0.6 2.01,-1c0.62,-0.4 1.23,-0.89 1.85,-1.45c0.28,-0.22 0.56,-0.35 0.84,-0.35z" class="st1"/>
   <path id="svg_20" d="m454.6,182.980625c1.83,0 3.49,0.31 4.96,0.92s2.73,1.48 3.77,2.6c1.04,1.12 1.84,2.48 2.39,4.08c0.55,1.59 0.83,3.37 0.83,5.34c0,1.98 -0.28,3.77 -0.83,5.35c-0.55,1.59 -1.35,2.94 -2.39,4.06c-1.04,1.12 -2.3,1.99 -3.77,2.59s-3.12,0.9 -4.96,0.9c-1.85,0 -3.52,-0.3 -4.99,-0.9c-1.48,-0.6 -2.74,-1.47 -3.78,-2.59c-1.04,-1.12 -1.84,-2.48 -2.39,-4.06c-0.55,-1.59 -0.83,-3.37 -0.83,-5.35c0,-1.97 0.28,-3.75 0.83,-5.34c0.55,-1.59 1.35,-2.95 2.39,-4.08c1.04,-1.12 2.3,-1.99 3.78,-2.6c1.47,-0.62 3.14,-0.92 4.99,-0.92zm0,22.4c2.48,0 4.33,-0.83 5.55,-2.49c1.22,-1.66 1.83,-3.98 1.83,-6.95c0,-2.99 -0.61,-5.32 -1.83,-6.99s-3.07,-2.5 -5.55,-2.5c-1.26,0 -2.35,0.22 -3.28,0.64c-0.93,0.43 -1.71,1.05 -2.33,1.86c-0.62,0.81 -1.08,1.8 -1.39,2.99c-0.31,1.18 -0.46,2.52 -0.46,4c0,2.97 0.62,5.29 1.85,6.95c1.23,1.66 3.1,2.49 5.61,2.49z" class="st1"/>
   <path id="svg_21" d="m472.12,208.480625l0,-25.1l2.65,0c0.63,0 1.02,0.31 1.16,0.92l0.32,2.58c0.92,-1.14 1.97,-2.07 3.12,-2.8c1.16,-0.73 2.5,-1.09 4.02,-1.09c1.68,0 3.05,0.47 4.1,1.41s1.81,2.21 2.27,3.82c0.36,-0.91 0.83,-1.69 1.4,-2.35c0.57,-0.66 1.21,-1.21 1.92,-1.64c0.71,-0.43 1.47,-0.74 2.27,-0.94c0.8,-0.2 1.62,-0.3 2.44,-0.3c1.32,0 2.5,0.21 3.53,0.63c1.03,0.42 1.91,1.04 2.63,1.85c0.72,0.81 1.27,1.8 1.65,2.99c0.38,1.18 0.57,2.53 0.57,4.05l0,15.98l-4.44,0l0,-15.98c0,-1.97 -0.43,-3.46 -1.29,-4.47c-0.86,-1.02 -2.1,-1.52 -3.72,-1.52c-0.73,0 -1.42,0.13 -2.07,0.38c-0.65,0.26 -1.23,0.63 -1.72,1.13c-0.49,0.5 -0.89,1.12 -1.18,1.87c-0.29,0.75 -0.43,1.62 -0.43,2.61l0,15.98l-4.44,0l0,-15.98c0,-2.02 -0.4,-3.52 -1.21,-4.51c-0.81,-0.99 -1.99,-1.49 -3.54,-1.49c-1.09,0 -2.1,0.29 -3.02,0.88c-0.92,0.59 -1.78,1.38 -2.55,2.39l0,18.71l-4.44,0l0,-0.01z" class="st1"/>
   <path id="svg_22" d="m517.1,187.260625c1.06,-1.3 2.28,-2.35 3.67,-3.15c1.39,-0.79 2.97,-1.19 4.76,-1.19c1.45,0 2.77,0.28 3.94,0.83s2.17,1.37 3,2.45c0.83,1.08 1.46,2.43 1.91,4.03c0.45,1.6 0.67,3.44 0.67,5.53c0,1.85 -0.25,3.57 -0.74,5.17c-0.5,1.59 -1.21,2.97 -2.14,4.14c-0.93,1.17 -2.07,2.08 -3.42,2.75c-1.35,0.67 -2.86,1 -4.55,1c-1.54,0 -2.85,-0.26 -3.95,-0.78c-1.1,-0.52 -2.07,-1.24 -2.91,-2.17l0,11.1l-4.44,0l0,-33.61l2.65,0c0.63,0 1.02,0.31 1.16,0.92l0.39,2.98zm0.22,15.17c0.81,1.09 1.69,1.86 2.65,2.31c0.96,0.45 2.03,0.67 3.22,0.67c2.35,0 4.15,-0.83 5.4,-2.5c1.26,-1.67 1.88,-4.05 1.88,-7.14c0,-1.64 -0.14,-3.04 -0.43,-4.21c-0.29,-1.17 -0.71,-2.14 -1.25,-2.89c-0.55,-0.75 -1.21,-1.3 -2.01,-1.65c-0.79,-0.35 -1.69,-0.52 -2.7,-0.52c-1.44,0 -2.7,0.33 -3.78,0.99c-1.08,0.66 -2.08,1.59 -2.99,2.8l0,12.14l0.01,0z" class="st1"/>
   <path id="svg_23" d="m540.02,186.920625c1.39,-1.34 2.88,-2.34 4.49,-3c1.6,-0.66 3.38,-0.99 5.33,-0.99c1.4,0 2.65,0.23 3.74,0.69c1.09,0.46 2.01,1.11 2.75,1.93c0.74,0.83 1.31,1.83 1.68,3c0.38,1.17 0.57,2.46 0.57,3.87l0,16.06l-1.96,0c-0.43,0 -0.76,-0.07 -0.99,-0.21c-0.23,-0.14 -0.41,-0.42 -0.55,-0.83l-0.49,-2.38c-0.66,0.61 -1.31,1.15 -1.93,1.62c-0.63,0.47 -1.29,0.87 -1.98,1.19c-0.7,0.32 -1.43,0.57 -2.22,0.74c-0.79,0.17 -1.66,0.26 -2.61,0.26c-0.98,0 -1.89,-0.14 -2.75,-0.41c-0.86,-0.27 -1.61,-0.68 -2.24,-1.23c-0.64,-0.54 -1.14,-1.23 -1.51,-2.07c-0.37,-0.83 -0.56,-1.82 -0.56,-2.96c0,-0.99 0.27,-1.95 0.82,-2.86c0.54,-0.92 1.43,-1.73 2.65,-2.44c1.22,-0.71 2.82,-1.29 4.78,-1.75c1.97,-0.45 4.38,-0.71 7.24,-0.78l0,-1.96c0,-1.95 -0.42,-3.42 -1.26,-4.42c-0.84,-1 -2.07,-1.5 -3.69,-1.5c-1.09,0 -2,0.14 -2.74,0.41c-0.74,0.27 -1.37,0.58 -1.91,0.92c-0.54,0.34 -1,0.64 -1.39,0.92c-0.39,0.27 -0.77,0.41 -1.15,0.41c-0.3,0 -0.55,-0.08 -0.77,-0.24c-0.22,-0.16 -0.4,-0.35 -0.55,-0.58l-0.8,-1.41zm14.25,10.26c-2.03,0.07 -3.76,0.23 -5.19,0.48c-1.43,0.26 -2.59,0.59 -3.49,1c-0.9,0.41 -1.55,0.9 -1.96,1.46c-0.4,0.56 -0.61,1.19 -0.61,1.88c0,0.66 0.11,1.23 0.32,1.71c0.21,0.48 0.51,0.87 0.88,1.18c0.37,0.31 0.81,0.53 1.31,0.67c0.5,0.14 1.04,0.21 1.62,0.21c0.78,0 1.49,-0.08 2.13,-0.24c0.64,-0.16 1.25,-0.38 1.82,-0.68c0.57,-0.3 1.12,-0.65 1.64,-1.07c0.52,-0.41 1.03,-0.88 1.52,-1.41l0,-5.19l0.01,0z" class="st1"/>
   <path id="svg_24" d="m569.46,187.020625c0.55,-0.61 1.12,-1.16 1.74,-1.66c0.61,-0.5 1.26,-0.92 1.94,-1.28c0.69,-0.36 1.41,-0.63 2.18,-0.82c0.77,-0.19 1.6,-0.29 2.49,-0.29c1.37,0 2.58,0.23 3.63,0.68c1.05,0.45 1.92,1.1 2.63,1.93c0.7,0.83 1.23,1.84 1.6,3.01c0.36,1.17 0.54,2.47 0.54,3.89l0,15.98l-4.44,0l0,-15.98c0,-1.9 -0.43,-3.37 -1.3,-4.42c-0.87,-1.05 -2.18,-1.57 -3.95,-1.57c-1.31,0 -2.52,0.31 -3.66,0.94c-1.13,0.63 -2.18,1.48 -3.14,2.55l0,18.49l-4.44,0l0,-25.1l2.65,0c0.63,0 1.02,0.31 1.16,0.92l0.37,2.73z" class="st1"/>
   <path id="svg_25" d="m614,183.370625l-14,32.51c-0.15,0.33 -0.33,0.6 -0.56,0.79c-0.22,0.2 -0.57,0.3 -1.03,0.3l-3.27,0l4.58,-9.96l-10.36,-23.64l3.82,0c0.38,0 0.68,0.1 0.9,0.28c0.22,0.19 0.38,0.4 0.46,0.63l6.72,15.81c0.26,0.69 0.49,1.42 0.67,2.18c0.23,-0.78 0.48,-1.51 0.74,-2.21l6.52,-15.79c0.1,-0.26 0.27,-0.48 0.51,-0.66c0.24,-0.17 0.51,-0.26 0.8,-0.26l3.5,0l0,0.02z" class="st1"/>
  </g>
  <text xml:space="preserve" text-anchor="start" font-family="'Trebuchet MS', Gadget, sans-serif" font-size="78" id="svg_26" y="84.998123" x="664" stroke-opacity="null" stroke-width="0" stroke="null" fill="#00bb9e">Clinical</text>
  <text xml:space="preserve" text-anchor="start" font-family="'Trebuchet MS', Gadget, sans-serif" font-size="78" id="svg_27" y="187.998123" x="664" stroke-opacity="null" stroke-width="0" stroke="null" fill="#00bb9e">Workbench</text>
 </g>
</svg>