<?xml version="1.0" encoding="utf-8"?>
<!-- Generator: Adobe Illustrator 18.1.1, SVG Export Plug-In . SVG Version: 6.00 Build 0)  -->
<!DOCTYPE svg PUBLIC "-//W3C//DTD SVG 1.1//EN" "http://www.w3.org/Graphics/SVG/1.1/DTD/svg11.dtd">
<svg version="1.1" id="Layer_1" xmlns="http://www.w3.org/2000/svg" x="0px" y="0px"
     viewBox="0 0 960 560" enable-background="new 0 0 960 560" xml:space="preserve">
<g>
	<g>
		<path fill="#FFFFFF" d="M230.8,224.4l-16.1,65.4c-3.5,14.4-9.8,24.8-18.5,31.3c-8.7,6.5-21.3,9.8-37.9,9.8
			c-14.7,0-25.9-2.5-33.2-7.4c-7.6-4.9-11.4-12.5-11.4-22.3c0-1.9,0.3-4.1,0.5-6.3c0.3-2.2,0.8-4.1,1.1-5.7l16.1-64.9h29.2
			l-16.1,64.9c-0.3,1.4-0.5,2.7-0.8,4.4c-0.3,1.6-0.3,3-0.3,3.8c0,4.4,1.4,7.9,4.4,10.1c2.7,2.2,7.6,3.3,14.2,3.3
			c6.3,0,11.4-1.6,15.5-4.9c3.8-3.3,6.8-8.4,8.4-15.3l16.3-66.2L230.8,224.4L230.8,224.4z"/>
		<path fill="#FFFFFF" d="M272.5,331c-9.5,0-18-0.8-25.6-2.2c-7.4-1.6-13.9-3.5-19.3-5.7l5.7-25.1h3.3c5.2,4.4,11.2,7.9,18,10.4
			s14.4,3.5,22.3,3.5c8.2,0,14.2-1.1,18-3.3s5.7-5.2,5.7-9c0-1.4-0.3-2.7-0.8-3.8c-0.5-1.1-1.9-2.2-3.5-3.3c-1.9-1.1-4.4-2.2-7.4-3
			c-3-1.1-7.1-2.2-12-3.5c-5.4-1.4-10.4-3-14.7-4.6c-4.4-1.6-7.9-3.5-10.9-5.7s-5.4-4.9-6.8-7.9c-1.6-3-2.5-6.5-2.5-10.9
			c0-10.6,4.9-18.8,14.7-25.1c9.8-6.3,23.4-9.5,40.6-9.5c8.2,0,16.1,0.5,23.4,1.9c7.4,1.4,13.6,3,18.5,5.2l-5.4,24h-3
			c-3.8-3.3-9-6.3-15.3-8.4c-6.3-2.2-13.4-3.3-20.7-3.3s-13.1,1.1-17.2,3s-6,4.9-6,8.4c0,1.6,0.3,3,0.8,4.1c0.5,1.1,1.9,2.2,3.5,3.3
			c1.6,0.8,4.1,1.9,7.6,3c3.5,1.1,7.4,2.2,12,3.3c12.5,3.3,21.3,6.8,26.7,11.2s7.9,10.1,7.9,17.2c0,6-1.4,11.4-4.4,16.1
			s-6.8,8.4-12,11.2c-5.4,3-11.4,5.2-18.3,6.8C288.6,330.4,280.9,331,272.5,331z"/>
		<path fill="#FFFFFF" d="M448.5,244.6h-34.6L393.2,329h-28.9l20.7-84.5h-34.6l4.9-20.2h98.4L448.5,244.6z"/>
		<path fill="#FFFFFF" d="M515.6,308.3c-4.4,2.2-9,3.3-13.9,3.3c-6.8,0-12.3-1.9-16.3-6c-3.8-4.1-6-10.1-6-18
			c0-7.1,1.1-13.6,3.3-19.6c2.2-5.7,4.9-10.6,8.4-14.4c3.5-4.1,7.4-7.1,11.7-9c4.1-1.9,8.7-3,13.4-3c7.1,0,12.5,2.2,16.3,6.3
			c3.8,4.4,5.7,10.1,5.7,17.4c0,7.1-1.1,13.6-3,19.1c-1.9,5.4-4.6,10.4-7.9,14.4C524,303.2,519.9,306.2,515.6,308.3z M555.3,233.4
			c-8.7-7.4-20.4-11.2-35.7-11.2c-10.4,0-20.2,1.9-28.9,5.4c-8.7,3.5-16.3,8.4-22.3,14.4c-6.3,6.3-10.9,13.4-14.2,21.5
			c-3.3,8.2-4.9,16.9-4.9,25.9c0,12.8,4.4,23.2,12.8,30.5c8.7,7.4,20.4,11.2,35.7,11.2c11.2,0,21-1.9,29.7-5.4
			c8.4-3.5,16.1-8.7,22.6-15.5c6-6.3,10.4-13.4,13.4-21.8c3-8.2,4.6-16.6,4.6-25.3C568.2,250.6,563.8,240.8,555.3,233.4z"/>
		<path fill="#FFFFFF" d="M659.2,290.1c-3.8,6.8-9.3,12-16.6,15.5c-2.5,1.4-4.9,2.2-7.1,2.7c-2.2,0.5-4.4,0.8-7.1,1.1
			c-2.2,0.3-4.6,0.3-7.9,0.3c-3.3,0-6.3,0-9.3,0h-2.7l16.3-66.2h1.1c2.2,0,4.6,0,7.6,0c3,0,5.4,0,7.9,0.3c2.5,0.3,4.6,0.5,6.3,1.1
			c1.9,0.5,3.8,1.1,5.4,2.2c3.8,2.2,6.8,4.9,8.7,8.4c1.9,3.5,2.7,7.6,2.7,12.3C664.9,275.6,663,283.3,659.2,290.1z M690.8,246.2
			c-3-5.4-7.1-9.8-12.5-13.4c-4.1-2.7-9.3-4.6-15.8-6.3c-6.5-1.6-15-2.2-25.6-2.2h-36L575.2,329h40.3c9.5,0,17.7-0.5,24.5-1.6
			c6.8-1.1,13.4-3.3,19.6-6.3c10.4-5.4,18.8-13.1,25.6-22.9c6.5-10.1,10.1-21,10.1-32.7C695.1,257.9,693.8,251.7,690.8,246.2z"/>
		<path fill="#FFFFFF" d="M754,224.7l-25.9,104.1h-27.2l25.9-104.1H754z"/>
		<g>
			<polygon fill="#FFFFFF" points="775,224.7 813.7,224.7 847.5,281.1 875,328.5 836.3,328.5 822.7,302.3 810.1,282.2 			"/>
		</g>
		<polygon fill="#FFFFFF" points="122.9,349.5 182,350.3 174.1,384.4 114.4,384.4 		"/>
		<polygon fill="#FFFFFF" points="199.5,350.3 342.5,350.3 335.4,384.4 192.4,384.4 		"/>
		<polygon fill="#FFFFFF" points="367.3,351.4 542.8,351.9 535.7,384.4 360.2,384.4 		"/>
		<path fill="#FFFFFF" d="M921.6,221.4l-73,61.9l-25.1,20.2l-36,29.2l-0.5,0.3c-54.8,41.1-82.8,50.1-150.4,51
			c-3.3,0-62.7,0.3-62.7,0.3l6.3-32.4c0,0,101.6-0.5,106.3-1.1c35.4-3.3,66.8-21.5,81.5-32.7l43.6-34.3l24.3-19.3l66.8-55l-0.3,0.3
			l16.9-15l-6.8-8.2l47.7-10.6l-19.3,42.8l-6.8-7.6L921.6,221.4L921.6,221.4z"/>
	</g>
	<path fill="#FFFFFF" d="M107.1,349.2c-43.6-1.9-67.3-35.7-64.3-75.5c3-40.1,35.4-71.7,74.4-71.7c13.4,0,26.7,1.9,38.1,7.6l6.5-22.9
		c-16.3-8.2-35.4-10.9-54.5-10.9c-56.1,0-102.7,45.8-107.1,103.3s30.2,105.2,91.8,105.2c1.4,0,4.1,0,5.7,0L107.1,349.2z"/>
</g>
</svg>
